<?xml version="1.0" standalone="no"?>
<!DOCTYPE svg PUBLIC "-//W3C//DTD SVG 20010904//EN"
 "http://www.w3.org/TR/2001/REC-SVG-20010904/DTD/svg10.dtd">
<svg version="1.0" xmlns="http://www.w3.org/2000/svg"
 width="225.000000pt" height="225.000000pt" viewBox="0 0 225.000000 225.000000"
 preserveAspectRatio="xMidYMid meet">

<g transform="translate(0.000000,225.000000) scale(0.100000,-0.100000)"
fill="#000000" stroke="none">
<path d="M927 1866 c-83 -34 -162 -98 -181 -147 l-16 -40 -29 23 c-16 13 -52
43 -81 68 -41 34 -51 39 -46 23 7 -21 5 -20 -46 7 -67 35 -104 47 -93 29 6 -9
3 -10 -10 -5 -10 3 -45 9 -77 13 -44 4 -58 3 -56 -6 2 -7 -13 -18 -32 -25 -19
-7 -48 -20 -65 -29 l-30 -18 33 7 33 6 -48 -47 -48 -47 50 28 c28 15 56 32 63
37 20 16 14 -5 -10 -32 l-23 -25 28 17 c38 24 80 40 72 27 -4 -6 14 -10 47
-10 31 0 48 -4 40 -8 -8 -6 8 -13 45 -22 32 -7 52 -15 45 -17 -10 -4 -10 -8
-1 -19 9 -12 5 -14 -22 -15 -19 0 -43 -4 -54 -9 -18 -8 -18 -9 5 -10 21 -1 19
-3 -15 -17 -39 -16 -125 -70 -125 -78 0 -2 8 -2 18 1 19 6 -13 -26 -63 -63
-29 -21 -29 -22 -5 -16 19 4 13 -4 -24 -31 -63 -46 -66 -49 -33 -37 45 17 44
14 -8 -40 l-50 -52 50 28 c28 16 56 33 63 38 17 13 15 1 -5 -31 l-18 -27 31
22 c17 12 37 29 44 38 17 20 31 19 23 -2 -3 -10 16 6 42 35 28 32 51 49 55 43
4 -7 19 3 40 24 36 37 53 45 44 20 -5 -13 -1 -13 36 0 82 29 85 19 15 -47 -73
-67 -103 -108 -65 -88 15 8 9 -7 -25 -55 -43 -64 -56 -93 -35 -80 13 8 13 7
-10 -60 -24 -70 -24 -71 -5 -55 20 16 19 11 -5 -50 -26 -66 -25 -72 6 -35 l25
30 -7 -30 c-4 -16 -13 -48 -21 -69 -18 -52 -9 -57 15 -9 11 21 27 52 36 68
l16 30 1 -40 1 -40 23 65 c13 36 24 56 25 45 2 -21 14 20 26 90 5 31 8 36 14
20 5 -15 12 -4 31 48 23 64 39 85 39 51 0 -9 14 10 31 42 16 32 41 72 53 87
l23 29 -5 -75 c-8 -131 23 -325 80 -492 25 -74 112 -251 161 -326 20 -32 38
-62 39 -68 4 -16 -129 -72 -232 -98 -22 -5 92 -8 310 -8 190 0 404 -3 475 -8
l130 -7 -50 19 c-27 10 -69 26 -92 36 l-42 18 38 56 c110 161 181 380 181 554
0 68 5 67 43 -5 14 -27 27 -42 30 -35 2 6 10 -8 17 -32 8 -23 20 -45 27 -48 8
-3 13 -22 14 -47 0 -22 3 -34 6 -26 4 9 11 1 19 -25 7 -24 13 -32 13 -20 1 14
9 8 26 -25 21 -39 24 -41 19 -15 -3 17 -8 39 -11 50 l-5 20 16 -20 c17 -20 17
-19 10 5 -4 14 -9 31 -12 39 -4 9 -1 12 7 7 12 -8 8 22 -10 72 -6 15 -5 21 1
17 13 -8 1 24 -22 57 -21 30 -23 42 -6 32 21 -13 -31 54 -63 81 -39 32 -33 41
15 21 25 -10 36 -11 36 -4 0 7 13 0 28 -15 16 -15 31 -25 34 -22 3 4 16 -8 28
-25 12 -16 25 -28 30 -25 5 3 11 1 15 -5 3 -5 15 -15 25 -20 16 -9 18 -8 13 7
-6 14 0 13 33 -7 l39 -23 -30 33 c-30 32 -30 32 -5 26 l25 -7 -25 20 c-14 11
-28 21 -32 21 -5 0 -8 5 -8 11 0 5 6 7 13 4 6 -4 -1 5 -18 20 -16 14 -29 30
-28 35 3 12 -66 60 -87 60 -12 0 -13 2 -1 9 10 7 5 11 -18 16 -41 9 -48 23
-14 30 15 4 37 11 48 16 35 16 81 14 111 -6 l29 -18 -19 21 c-24 27 -9 28 24
2 38 -30 47 -24 14 11 -23 24 -25 29 -9 23 20 -6 20 -6 0 8 -11 9 -30 18 -42
22 -13 4 -23 12 -23 18 0 7 -18 9 -50 6 -27 -3 -47 -1 -44 3 5 9 -62 -13 -97
-31 -15 -8 -19 -9 -15 -1 13 20 -4 11 -57 -30 l-52 -41 -12 31 c-8 18 -34 45
-66 66 -56 37 -123 63 -111 43 5 -8 -2 -9 -22 -5 -38 7 -115 -3 -108 -14 3 -5
-6 -9 -19 -9 -16 0 -31 10 -42 28 -10 15 -29 40 -44 56 l-26 29 25 -12 c16 -8
8 4 -24 32 -26 25 -66 53 -89 63 -38 17 -39 19 -16 25 50 12 -126 42 -218 36
-78 -4 -83 -4 -63 10 16 11 19 18 10 23 -7 4 9 10 36 14 27 4 59 10 72 13 21
5 22 6 5 20 -16 13 -14 14 22 8 22 -3 53 -8 69 -11 19 -4 26 -3 22 5 -11 17 6
13 70 -15 33 -14 53 -20 47 -13 -29 29 -9 27 55 -7 l67 -36 -29 31 c-17 17
-27 31 -24 31 3 0 36 -11 73 -25 37 -14 69 -24 71 -22 2 2 -26 20 -61 41 -36
21 -65 40 -65 42 0 2 19 2 43 -1 41 -6 41 -5 -21 21 -41 17 -59 30 -51 35 14
8 -79 39 -118 39 -25 0 -31 15 -10 24 6 3 -34 4 -90 3 -80 -2 -99 1 -91 11 15
17 1 15 -65 -12z m113 -411 c36 -19 41 -19 34 0 -11 28 13 15 55 -30 29 -31
41 -39 41 -27 0 9 15 -8 33 -39 18 -31 37 -54 45 -52 20 7 13 -16 -9 -27 -11
-7 -18 -14 -16 -17 3 -2 15 0 26 6 18 10 22 7 36 -19 17 -34 30 -40 20 -11
-12 38 14 30 39 -11 l26 -43 -33 -27 c-17 -15 -26 -28 -18 -28 8 0 1 -14 -18
-35 -32 -36 -39 -51 -20 -40 6 4 1 -13 -12 -36 l-22 -44 23 20 23 20 -7 -20
c-14 -34 -25 -75 -21 -75 2 0 15 19 29 43 23 38 26 39 27 17 0 -22 3 -20 19
15 10 22 19 33 19 25 1 -8 12 3 26 25 13 22 25 36 25 31 0 -6 15 5 34 23 19
18 35 28 38 21 2 -8 15 -6 42 5 l39 17 -28 -33 c-16 -20 -23 -35 -16 -37 7 -2
-1 -19 -19 -42 -31 -40 -38 -56 -18 -44 6 4 2 -9 -11 -29 -12 -20 -18 -37 -12
-37 8 0 6 -10 -4 -30 -19 -37 -19 -51 0 -26 14 19 15 17 16 -20 l1 -39 13 35
c7 19 14 29 14 23 2 -23 19 -14 25 12 4 14 11 23 15 20 5 -3 15 11 21 31 9 27
15 33 21 23 5 -8 9 -9 9 -3 0 23 33 89 38 76 2 -8 15 8 28 35 l24 48 -4 -90
c-7 -122 -36 -230 -95 -350 -60 -122 -145 -245 -169 -245 -9 0 -38 -7 -63 -16
-46 -17 -46 -17 -94 12 -27 15 -69 33 -94 39 -42 11 -50 18 -103 96 -182 268
-262 493 -275 773 -6 134 -1 139 40 42 20 -49 26 -56 34 -41 8 14 14 5 34 -50
16 -46 25 -61 29 -49 8 21 12 15 36 -56 16 -49 18 -52 24 -30 6 22 9 17 25
-35 l19 -60 6 35 c7 37 9 35 34 -35 l15 -40 0 59 1 60 25 -34 c29 -39 31 -36
11 11 -7 19 -17 45 -21 59 -7 23 -7 24 11 10 18 -14 18 -14 3 10 -61 99 -63
104 -46 97 23 -9 21 -2 -7 36 -13 18 -32 45 -42 61 l-18 29 23 -13 24 -12 -22
31 c-12 17 -26 33 -31 36 -6 3 -15 15 -20 25 -10 18 -8 19 15 10 14 -5 38 -16
55 -25z m396 -154 c-3 -5 15 -6 39 -3 27 3 45 1 45 -6 0 -5 20 -13 43 -16 29
-4 44 -12 44 -21 0 -12 -15 -15 -67 -15 -78 0 -132 -9 -125 -21 3 -4 -4 -13
-15 -19 -11 -6 -20 -9 -20 -8 0 2 -7 25 -15 51 -15 50 -12 52 29 18 18 -15 19
-15 8 4 -9 17 -7 22 11 32 27 15 30 15 23 4z"/>
</g>
</svg>
