<?xml version="1.0" standalone="no"?>
<!DOCTYPE svg PUBLIC "-//W3C//DTD SVG 20010904//EN"
 "http://www.w3.org/TR/2001/REC-SVG-20010904/DTD/svg10.dtd">
<svg version="1.0" xmlns="http://www.w3.org/2000/svg"
 width="512.000000pt" height="512.000000pt" viewBox="0 0 512.000000 512.000000"
 preserveAspectRatio="xMidYMid meet">

<g transform="translate(0.000000,512.000000) scale(0.100000,-0.100000)"
fill="#000000" stroke="none">
<path d="M1010 4234 c-159 -25 -240 -49 -355 -106 -289 -144 -484 -401 -557
-733 -19 -87 -19 -1583 0 -1670 95 -433 405 -741 832 -827 95 -19 3165 -19
3260 0 427 86 737 394 832 827 10 47 13 232 13 835 0 603 -3 788 -13 835 -93
424 -377 715 -802 822 -59 15 -214 17 -1625 19 -858 1 -1571 0 -1585 -2z
m3233 -187 c169 -53 291 -129 405 -252 117 -127 196 -292 222 -463 7 -44 10
-330 8 -817 l-3 -750 -28 -90 c-92 -294 -307 -510 -602 -602 l-90 -28 -1595 0
-1595 0 -90 28 c-296 93 -509 306 -602 602 l-28 90 0 795 0 795 28 90 c104
331 370 568 704 625 26 4 752 7 1613 6 l1565 -1 88 -28z"/>
<path d="M1882 3433 c-7 -3 -19 -18 -27 -33 -13 -25 -15 -144 -15 -840 0 -900
-3 -863 63 -875 30 -6 125 39 858 407 891 446 872 435 839 495 -12 23 -167
104 -835 440 -451 227 -831 412 -845 412 -14 0 -31 -3 -38 -6z m793 -535 c366
-183 665 -335 665 -338 0 -5 -1325 -670 -1335 -670 -3 0 -5 302 -5 670 0 369
2 670 5 670 3 0 304 -150 670 -332z"/>
</g>
</svg>
